<?xml version="1.0" encoding="UTF-8" standalone="no"?>
<!DOCTYPE svg PUBLIC "-//W3C//DTD SVG 1.1//EN" "http://www.w3.org/Graphics/SVG/1.1/DTD/svg11.dtd">
<svg xmlns="http://www.w3.org/2000/svg" version="1.1" viewBox="0 0 277 151" width="277" height="151">
<path fill="#ffffff" d="
  M 213.75 111.50
  Q 227.26 108.65 236.50 97.20
  A 1.60 1.01 -35.5 0 0 236.86 96.32
  L 236.87 88.93
  A 0.57 0.50 0.6 0 0 236.31 88.43
  L 212.94 88.07
  A 0.53 0.52 0.0 0 1 212.42 87.56
  L 212.26 65.98
  A 0.67 0.67 -0.4 0 1 212.93 65.31
  L 261.80 65.00
  A 0.95 0.94 89.7 0 1 262.75 65.95
  L 262.75 106.41
  Q 262.75 108.07 261.73 109.38
  Q 241.84 135.04 209.00 136.50
  Q 191.63 137.27 176.50 130.92
  Q 167.25 127.04 159.58 120.44
  Q 140.29 103.82 138.19 77.99
  Q 137.35 67.68 139.60 58.14
  Q 143.74 40.60 156.63 28.20
  Q 163.81 21.29 172.92 16.72
  Q 185.91 10.21 200.75 9.50
  Q 209.52 9.08 218.34 10.50
  Q 227.51 11.97 235.17 15.35
  Q 247.41 20.74 256.92 30.55
  A 0.23 0.23 52.9 0 1 256.87 30.92
  L 233.88 44.82
  A 1.12 1.10 -39.5 0 1 232.56 44.70
  Q 222.38 35.54 209.48 34.31
  Q 199.55 33.37 189.95 37.44
  Q 175.61 43.53 169.16 58.08
  Q 166.14 64.90 165.87 71.79
  Q 165.57 79.36 168.25 86.00
  Q 175.83 104.77 194.03 110.43
  Q 204.05 113.54 213.75 111.50
  Z"
/>
<path fill="#ffffff" d="
  M 43.82 112.69
  L 108.05 113.19
  A 0.53 0.50 -0.5 0 1 108.58 113.68
  L 108.74 135.07
  A 0.95 0.92 -0.3 0 1 107.79 136.00
  L 15.96 136.00
  A 0.45 0.45 0.9 0 1 15.51 135.55
  L 15.31 11.55
  A 0.81 0.80 0.0 0 1 16.12 10.75
  L 105.90 10.75
  A 0.85 0.85 86.1 0 1 106.75 11.60
  L 106.75 32.87
  A 0.88 0.88 88.0 0 1 105.87 33.75
  L 43.76 33.75
  A 0.51 0.51 0.0 0 0 43.25 34.26
  L 43.31 112.19
  A 0.51 0.50 0.0 0 0 43.82 112.69
  Z"
/>
<path fill="#1c31c5" d="
  M 63.82 72.16
  Q 64.96 67.30 66.42 62.53
  A 0.67 0.66 8.1 0 1 67.06 62.06
  L 99.97 62.00
  A 0.78 0.78 0.0 0 1 100.75 62.78
  L 100.75 84.19
  A 0.56 0.56 0.0 0 1 100.19 84.75
  L 61.28 84.75
  A 0.41 0.40 -83.2 0 1 60.89 84.25
  Q 62.46 77.87 63.82 72.16
  Z"
/>
</svg>
